<?xml version="1.0" encoding="UTF-8" standalone="no"?><!DOCTYPE svg PUBLIC "-//W3C//DTD SVG 1.1//EN" "http://www.w3.org/Graphics/SVG/1.1/DTD/svg11.dtd"><svg width="100%" height="100%" viewBox="0 0 179 80" version="1.1" xmlns="http://www.w3.org/2000/svg" xmlns:xlink="http://www.w3.org/1999/xlink" xml:space="preserve" xmlns:serif="http://www.serif.com/" style="fill-rule:evenodd;clip-rule:evenodd;stroke-linejoin:round;stroke-miterlimit:1.41421;"><g><g><path d="M3.492,6.984c1.929,0 3.492,-1.563 3.492,-3.492c0,-1.929 -1.563,-3.492 -3.492,-3.492c-1.929,0 -3.492,1.563 -3.492,3.492c0,1.929 1.563,3.492 3.492,3.492" style="fill:#60afdd;fill-rule:nonzero;"/><path d="M19.733,76.414c-1.9,0 -3.446,-1.546 -3.446,-3.445c0,-0.742 0.236,-1.43 0.637,-1.993c0.016,-0.023 0.033,-0.044 0.049,-0.067c0.221,-0.299 0.425,-0.609 0.626,-0.921c0.27,-0.416 0.526,-0.839 0.77,-1.271c0.456,-0.806 0.866,-1.64 1.23,-2.5c0.039,-0.092 0.128,-0.308 0.134,-0.322c0.005,0.014 0.094,0.23 0.133,0.322c0.364,0.86 0.774,1.694 1.231,2.5c0.243,0.432 0.499,0.855 0.769,1.271c0.201,0.312 0.405,0.622 0.626,0.921c0.016,0.023 0.033,0.044 0.049,0.067c0.401,0.563 0.637,1.251 0.637,1.993c0,1.899 -1.546,3.445 -3.445,3.445m5.595,-7.697l0.015,0c-0.838,-1.186 -1.556,-2.464 -2.135,-3.814c-0.169,-0.396 -0.328,-0.798 -0.473,-1.206c-0.594,-1.663 -0.982,-3.423 -1.135,-5.249l-3.735,0c-0.153,1.826 -0.541,3.586 -1.135,5.249c-0.145,0.408 -0.304,0.81 -0.473,1.206c-0.579,1.35 -1.297,2.628 -2.135,3.814l0.015,0c-0.3,0.393 -0.559,0.819 -0.772,1.271c-0.426,0.905 -0.664,1.916 -0.664,2.981c0,0.779 0.127,1.529 0.363,2.23c0.935,2.788 3.571,4.801 6.669,4.801c3.097,0 5.733,-2.013 6.668,-4.801c0.236,-0.701 0.363,-1.451 0.363,-2.23c0,-1.065 -0.238,-2.076 -0.664,-2.981c-0.213,-0.452 -0.472,-0.878 -0.772,-1.271" style="fill:#60afdd;fill-rule:nonzero;"/></g><g><path d="M83.853,33.989l0,-14.35c0,-3.655 2.74,-6.441 6.443,-6.441l3.55,0l0,3.35c-0.065,-0.001 -3.906,-0.001 -3.906,-0.001c-1.42,0 -2.535,1.164 -2.535,2.535l0,14.907l-3.552,0Z" style="fill:#353842;fill-rule:nonzero;"/><path d="M154.28,28.105c0,1.37 -1.116,2.535 -2.535,2.535l-3.703,0c-1.47,0 -1.723,-0.148 -2.789,-1.165l-3.854,-3.55l0,-9.482l10.346,0c1.419,0 2.535,1.116 2.535,2.536l0,9.126Zm-2.891,-14.907l-13.54,0l0,27.026l3.55,0l0,-10.191l2.384,2.333c0.76,0.71 2.079,1.623 3.702,1.623l3.904,0c3.703,0 6.443,-2.786 6.443,-6.442l0,-7.911c0,-3.701 -2.74,-6.438 -6.443,-6.438" style="fill:#353842;fill-rule:nonzero;"/><path d="M121.416,13.198l3.55,0l0,27.026l-3.55,0l0,-10.191l-2.383,2.333c-0.761,0.71 -2.08,1.623 -3.703,1.623l-3.904,0c-3.702,0 -6.442,-2.786 -6.442,-6.442l0,-14.349l3.551,0l0,14.907c0,1.37 1.115,2.535 2.535,2.535l3.702,0c1.471,0 1.724,-0.148 2.79,-1.165l3.854,-3.55l0,-12.727Z" style="fill:#353842;fill-rule:nonzero;"/><path d="M64.529,19.433l-1.761,0l6.363,-6.235l-4.364,0l-10.228,10.191l0,-16.426l-3.551,0l0,27.026l3.551,0l0,-6.492l3.854,-3.551c1.066,-1.016 1.319,-1.164 2.789,-1.164l3.703,0c1.419,0 2.535,1.164 2.535,2.535l0,8.672l3.551,0l0,-8.115c0,-3.655 -2.74,-6.441 -6.442,-6.441" style="fill:#353842;fill-rule:nonzero;"/><path d="M172.521,16.427l0,11.678c0,1.37 1.115,2.535 2.535,2.535c0,0 3.841,-0.001 3.906,-0.001l0,3.35l-3.55,0c-3.703,0 -6.443,-2.786 -6.443,-6.442l0,-20.584l3.552,0l0,6.235l6.441,0l0,3.229l-6.441,0Z" style="fill:#353842;"/><path d="M19.75,65.938l-0.035,0c0.006,-0.014 0.012,-0.029 0.018,-0.044c0.005,0.015 0.011,0.03 0.017,0.044" style="fill:#353842;fill-rule:nonzero;"/><path d="M19.75,65.938l-0.035,0c0.006,-0.014 0.012,-0.029 0.018,-0.044c0.005,0.015 0.011,0.03 0.017,0.044" style="fill:#353842;fill-rule:nonzero;"/><path d="M31.664,13.198l-13.736,0l0,14.294c-1.014,0.611 -1.693,1.723 -1.693,2.993c0,1.929 1.563,3.492 3.492,3.492c1.929,0 3.492,-1.563 3.492,-3.492c0,-1.29 -0.7,-2.416 -1.741,-3.021l0,-11.021l10.542,0c1.419,0 2.535,1.116 2.535,2.536l0,14.513c-0.558,0.189 -1.11,0.399 -1.655,0.63c-2.916,1.235 -5.535,3.001 -7.784,5.25c-2.249,2.249 -4.016,4.868 -5.25,7.785c-0.043,0.101 -0.085,0.203 -0.126,0.305l-0.015,0c-0.041,-0.102 -0.083,-0.204 -0.126,-0.305c-1.234,-2.917 -3.001,-5.536 -5.25,-7.785c-2.249,-2.249 -4.868,-4.015 -7.784,-5.25c-0.438,-0.185 -0.879,-0.356 -1.324,-0.515l0,-20.409l-3.55,0l0,23.107c8.718,1.991 15.378,9.446 16.169,18.557l3.745,0c0.801,-9.226 7.621,-16.754 16.501,-18.63l0,-16.596c0,-3.701 -2.74,-6.438 -6.442,-6.438" style="fill:#353842;fill-rule:nonzero;"/></g></g></svg>